# xmcd CD database file
#
# Track frame offsets:
#	150
#	20591
#	40928
#	61290
#	81163
#	110514
#	130500
#	155064
#	170501
#	191125
#
# Disc length: 2758 seconds
#
# Revision: 2
# Processed by: cddbd v1.5.1PL2 Copyright (c) Steve Scherf et al.
# Submitted via: CDex 1.51
#
DISCID=830ac40a
DTITLE=Bluesrudi and Igor Flach and Rick Howard - 1A Blues
DYEAR=2004
DGENRE=Blues
TTITLE0=Rollin' and tumblin
TTITLE1=Help me
TTITLE2=On the road again
TTITLE3=Going up the country
TTITLE4=Got my mojo working'
TTITLE5=Lost Dollar Blues
TTITLE6=On step ahead of the blues
TTITLE7=Bullfrog blues
TTITLE8=Dat crawfish
TTITLE9=Quiet woman
EXTD=YEAR: 2004
EXTT0=
EXTT1=
EXTT2=
EXTT3=
EXTT4=
EXTT5=
EXTT6=
EXTT7=
EXTT8=
EXTT9=
PLAYORDER=
